<?xml version="1.0" standalone="no"?>
<!DOCTYPE svg PUBLIC "-//W3C//DTD SVG 20010904//EN"
 "http://www.w3.org/TR/2001/REC-SVG-20010904/DTD/svg10.dtd">
<svg version="1.0" xmlns="http://www.w3.org/2000/svg"
 width="2000.000000pt" height="2000.000000pt" viewBox="0 0 2000.000000 2000.000000"
 preserveAspectRatio="xMidYMid meet">

<g transform="translate(0.000000,2000.000000) scale(0.100000,-0.100000)"
fill="#000000" stroke="none">
<path d="M6170 18790 c-1046 -11 -1157 -20 -1575 -130 -1572 -412 -2802 -1633
-3225 -3200 -121 -447 -143 -736 -160 -2030 -12 -880 4 -6621 20 -7525 14
-745 22 -844 100 -1155 341 -1357 1172 -2405 2388 -3014 272 -136 593 -258
917 -347 303 -83 389 -93 960 -109 581 -16 3301 -30 3650 -20 303 9 366 16
393 44 57 57 57 44 57 8536 -1 7336 -6 8831 -30 8892 -9 24 -50 38 -146 49
-108 13 -2366 19 -3349 9z m2080 -8770 l0 -7360 -52 0 c-29 0 -570 7 -1203 15
-1649 20 -1716 24 -2005 96 -1016 253 -1853 1020 -2179 1996 -60 179 -100 346
-111 458 -36 375 -53 2473 -47 5610 6 3098 19 3941 62 4130 164 717 590 1368
1185 1813 296 221 714 422 1044 502 341 84 615 96 2254 98 l1052 2 0 -7360z"/>
<path d="M5332 15174 c-195 -30 -464 -143 -677 -284 -144 -95 -324 -274 -418
-415 -116 -176 -193 -361 -239 -583 -21 -95 -23 -135 -23 -367 0 -361 15 -433
147 -695 98 -195 183 -315 323 -455 123 -124 244 -213 403 -297 234 -126 328
-153 582 -169 388 -25 582 7 867 141 180 85 319 185 473 339 195 195 318 389
399 628 63 185 75 266 75 503 0 232 -12 316 -70 503 -188 593 -701 1043 -1308
1147 -142 24 -390 26 -534 4z"/>
<path d="M11783 18790 c-167 -4 -306 -10 -309 -13 -16 -15 -23 -2920 -23
-9197 -1 -7184 5 -8190 44 -8292 5 -12 26 -19 83 -25 116 -12 2361 -8 2781 6
471 15 643 37 1004 127 649 163 1263 479 1792 923 131 109 401 378 515 511
423 495 700 995 909 1644 124 382 144 613 162 1825 14 947 6 7803 -10 8249
-13 364 -23 473 -62 657 -248 1178 -942 2203 -1936 2858 -494 326 -1091 565
-1673 671 -186 33 -324 45 -685 56 -339 11 -2109 11 -2592 0z m3288 -7881
c418 -42 792 -219 1084 -514 255 -257 417 -566 481 -920 26 -142 26 -508 1
-650 -83 -455 -409 -929 -810 -1174 -519 -317 -1130 -345 -1682 -76 -403 196
-717 527 -875 923 -83 209 -110 365 -110 647 0 263 28 441 99 634 270 731
1037 1209 1812 1130z"/>
</g>
</svg>
